<svg xmlns="http://www.w3.org/2000/svg" baseProfile="tiny" version="1.2" viewBox="-2 -2 66 66">
  <path fill="#fff" d="M-2-2h66v66H-2z" />
  <path
    d="M2 2h2v2H2zm2 0h2v2H4zm2 0h2v2H6zm2 0h2v2H8zm2 0h2v2h-2zm2 0h2v2h-2zm2 0h2v2h-2zm4 0h2v2h-2zm2 0h2v2h-2zm2 0h2v2h-2zm4 0h2v2h-2zm4 0h2v2h-2zm2 0h2v2h-2zm2 0h2v2h-2zm4 0h2v2h-2zm8 0h2v2h-2zm2 0h2v2h-2zm2 0h2v2h-2zm2 0h2v2h-2zm2 0h2v2h-2zm2 0h2v2h-2zm2 0h2v2h-2zM2 4h2v2H2zm12 0h2v2h-2zm4 0h2v2h-2zm2 0h2v2h-2zm2 0h2v2h-2zm16 0h2v2h-2zm2 0h2v2h-2zm6 0h2v2h-2zm12 0h2v2h-2zM2 6h2v2H2zm4 0h2v2H6zm2 0h2v2H8zm2 0h2v2h-2zm4 0h2v2h-2zm4 0h2v2h-2zm4 0h2v2h-2zm2 0h2v2h-2zm6 0h2v2h-2zm2 0h2v2h-2zm4 0h2v2h-2zm2 0h2v2h-2zm4 0h2v2h-2zm4 0h2v2h-2zm4 0h2v2h-2zm2 0h2v2h-2zm2 0h2v2h-2zm4 0h2v2h-2zM2 8h2v2H2zm4 0h2v2H6zm2 0h2v2H8zm2 0h2v2h-2zm4 0h2v2h-2zm4 0h2v2h-2zm2 0h2v2h-2zm4 0h2v2h-2zm4 0h2v2h-2zm2 0h2v2h-2zm2 0h2v2h-2zm6 0h2v2h-2zm2 0h2v2h-2zm6 0h2v2h-2zm4 0h2v2h-2zm2 0h2v2h-2zm2 0h2v2h-2zm4 0h2v2h-2zM2 10h2v2H2zm4 0h2v2H6zm2 0h2v2H8zm2 0h2v2h-2zm4 0h2v2h-2zm14 0h2v2h-2zm4 0h2v2h-2zm2 0h2v2h-2zm12 0h2v2h-2zm4 0h2v2h-2zm2 0h2v2h-2zm2 0h2v2h-2zm4 0h2v2h-2zM2 12h2v2H2zm12 0h2v2h-2zm4 0h2v2h-2zm6 0h2v2h-2zm2 0h2v2h-2zm8 0h2v2h-2zm2 0h2v2h-2zm2 0h2v2h-2zm2 0h2v2h-2zm6 0h2v2h-2zm12 0h2v2h-2zM2 14h2v2H2zm2 0h2v2H4zm2 0h2v2H6zm2 0h2v2H8zm2 0h2v2h-2zm2 0h2v2h-2zm2 0h2v2h-2zm4 0h2v2h-2zm4 0h2v2h-2zm4 0h2v2h-2zm4 0h2v2h-2zm4 0h2v2h-2zm4 0h2v2h-2zm4 0h2v2h-2zm4 0h2v2h-2zm2 0h2v2h-2zm2 0h2v2h-2zm2 0h2v2h-2zm2 0h2v2h-2zm2 0h2v2h-2zm2 0h2v2h-2zm-38 2h2v2h-2zm6 0h2v2h-2zm10 0h2v2h-2zm2 0h2v2h-2zm2 0h2v2h-2zm2 0h2v2h-2zM2 18h2v2H2zm2 0h2v2H4zm6 0h2v2h-2zm2 0h2v2h-2zm2 0h2v2h-2zm10 0h2v2h-2zm8 0h2v2h-2zm4 0h2v2h-2zm6 0h2v2h-2zm6 0h2v2h-2zm4 0h2v2h-2zm2 0h2v2h-2zm2 0h2v2h-2zm2 0h2v2h-2zM4 20h2v2H4zm6 0h2v2h-2zm2 0h2v2h-2zm4 0h2v2h-2zm2 0h2v2h-2zm2 0h2v2h-2zm2 0h2v2h-2zm4 0h2v2h-2zm2 0h2v2h-2zm2 0h2v2h-2zm2 0h2v2h-2zm4 0h2v2h-2zm2 0h2v2h-2zm8 0h2v2h-2zm2 0h2v2h-2zm2 0h2v2h-2zm2 0h2v2h-2zm2 0h2v2h-2zm2 0h2v2h-2zm2 0h2v2h-2zm-44 2h2v2h-2zm4 0h2v2h-2zm6 0h2v2h-2zm2 0h2v2h-2zm4 0h2v2h-2zm2 0h2v2h-2zm4 0h2v2h-2zm8 0h2v2h-2zm2 0h2v2h-2zm2 0h2v2h-2zm2 0h2v2h-2zm8 0h2v2h-2zM4 24h2v2H4zm2 0h2v2H6zm4 0h2v2h-2zm2 0h2v2h-2zm6 0h2v2h-2zm4 0h2v2h-2zm2 0h2v2h-2zm6 0h2v2h-2zm4 0h2v2h-2zm2 0h2v2h-2zm10 0h2v2h-2zm4 0h2v2h-2zm2 0h2v2h-2zm4 0h2v2h-2zm2 0h2v2h-2zM2 26h2v2H2zm6 0h2v2H8zm6 0h2v2h-2zm8 0h2v2h-2zm4 0h2v2h-2zm4 0h2v2h-2zm2 0h2v2h-2zm4 0h2v2h-2zm6 0h2v2h-2zm2 0h2v2h-2zm12 0h2v2h-2zM2 28h2v2H2zm4 0h2v2H6zm2 0h2v2H8zm2 0h2v2h-2zm2 0h2v2h-2zm6 0h2v2h-2zm2 0h2v2h-2zm10 0h2v2h-2zm2 0h2v2h-2zm2 0h2v2h-2zm2 0h2v2h-2zm2 0h2v2h-2zm8 0h2v2h-2zm4 0h2v2h-2zm2 0h2v2h-2zm2 0h2v2h-2zm2 0h2v2h-2zm2 0h2v2h-2zM2 30h2v2H2zm2 0h2v2H4zm6 0h2v2h-2zm4 0h2v2h-2zm4 0h2v2h-2zm2 0h2v2h-2zm8 0h2v2h-2zm2 0h2v2h-2zm2 0h2v2h-2zm4 0h2v2h-2zm14 0h2v2h-2zm2 0h2v2h-2zm2 0h2v2h-2zm4 0h2v2h-2zM2 32h2v2H2zm2 0h2v2H4zm2 0h2v2H6zm6 0h2v2h-2zm4 0h2v2h-2zm2 0h2v2h-2zm8 0h2v2h-2zm6 0h2v2h-2zm4 0h2v2h-2zm2 0h2v2h-2zm4 0h2v2h-2zm2 0h2v2h-2zm12 0h2v2h-2zm2 0h2v2h-2zM2 34h2v2H2zm4 0h2v2H6zm8 0h2v2h-2zm8 0h2v2h-2zm2 0h2v2h-2zm10 0h2v2h-2zm2 0h2v2h-2zm4 0h2v2h-2zm4 0h2v2h-2zm4 0h2v2h-2zm8 0h2v2h-2zM2 36h2v2H2zm2 0h2v2H4zm2 0h2v2H6zm2 0h2v2H8zm8 0h2v2h-2zm2 0h2v2h-2zm2 0h2v2h-2zm2 0h2v2h-2zm4 0h2v2h-2zm4 0h2v2h-2zm2 0h2v2h-2zm2 0h2v2h-2zm2 0h2v2h-2zm2 0h2v2h-2zm8 0h2v2h-2zm2 0h2v2h-2zm2 0h2v2h-2zm2 0h2v2h-2zm4 0h2v2h-2zm2 0h2v2h-2zm-48 2h2v2h-2zm4 0h2v2h-2zm2 0h2v2h-2zm4 0h2v2h-2zm4 0h2v2h-2zm2 0h2v2h-2zm2 0h2v2h-2zm4 0h2v2h-2zm2 0h2v2h-2zm2 0h2v2h-2zm2 0h2v2h-2zm4 0h2v2h-2zm4 0h2v2h-2zm4 0h2v2h-2zm4 0h2v2h-2zm4 0h2v2h-2zM6 40h2v2H6zm2 0h2v2H8zm8 0h2v2h-2zm2 0h2v2h-2zm6 0h2v2h-2zm12 0h2v2h-2zm4 0h2v2h-2zm2 0h2v2h-2zm2 0h2v2h-2zm2 0h2v2h-2zm10 0h2v2h-2zm2 0h2v2h-2zM2 42h2v2H2zm2 0h2v2H4zm4 0h2v2H8zm2 0h2v2h-2zm2 0h2v2h-2zm2 0h2v2h-2zm8 0h2v2h-2zm4 0h2v2h-2zm6 0h2v2h-2zm4 0h2v2h-2zm4 0h2v2h-2zm2 0h2v2h-2zm2 0h2v2h-2zm2 0h2v2h-2zm2 0h2v2h-2zm2 0h2v2h-2zm2 0h2v2h-2zm6 0h2v2h-2zm-40 2h2v2h-2zm4 0h2v2h-2zm6 0h2v2h-2zm4 0h2v2h-2zm4 0h2v2h-2zm2 0h2v2h-2zm4 0h2v2h-2zm8 0h2v2h-2zm8 0h2v2h-2zM2 46h2v2H2zm2 0h2v2H4zm2 0h2v2H6zm2 0h2v2H8zm2 0h2v2h-2zm2 0h2v2h-2zm2 0h2v2h-2zm6 0h2v2h-2zm12 0h2v2h-2zm4 0h2v2h-2zm2 0h2v2h-2zm2 0h2v2h-2zm2 0h2v2h-2zm4 0h2v2h-2zm4 0h2v2h-2zm2 0h2v2h-2zm2 0h2v2h-2zm4 0h2v2h-2zM2 48h2v2H2zm12 0h2v2h-2zm4 0h2v2h-2zm4 0h2v2h-2zm4 0h2v2h-2zm10 0h2v2h-2zm4 0h2v2h-2zm2 0h2v2h-2zm8 0h2v2h-2zm6 0h2v2h-2zm2 0h2v2h-2zM2 50h2v2H2zm4 0h2v2H6zm2 0h2v2H8zm2 0h2v2h-2zm4 0h2v2h-2zm4 0h2v2h-2zm2 0h2v2h-2zm2 0h2v2h-2zm2 0h2v2h-2zm2 0h2v2h-2zm6 0h2v2h-2zm4 0h2v2h-2zm2 0h2v2h-2zm2 0h2v2h-2zm2 0h2v2h-2zm2 0h2v2h-2zm2 0h2v2h-2zm2 0h2v2h-2zm2 0h2v2h-2zm2 0h2v2h-2zm4 0h2v2h-2zm2 0h2v2h-2zM2 52h2v2H2zm4 0h2v2H6zm2 0h2v2H8zm2 0h2v2h-2zm4 0h2v2h-2zm6 0h2v2h-2zm6 0h2v2h-2zm2 0h2v2h-2zm2 0h2v2h-2zm2 0h2v2h-2zm2 0h2v2h-2zm2 0h2v2h-2zm2 0h2v2h-2zm4 0h2v2h-2zm2 0h2v2h-2zm4 0h2v2h-2zm10 0h2v2h-2zM2 54h2v2H2zm4 0h2v2H6zm2 0h2v2H8zm2 0h2v2h-2zm4 0h2v2h-2zm6 0h2v2h-2zm2 0h2v2h-2zm2 0h2v2h-2zm2 0h2v2h-2zm4 0h2v2h-2zm2 0h2v2h-2zm6 0h2v2h-2zm2 0h2v2h-2zm12 0h2v2h-2zm2 0h2v2h-2zm2 0h2v2h-2zm2 0h2v2h-2zM2 56h2v2H2zm12 0h2v2h-2zm4 0h2v2h-2zm2 0h2v2h-2zm6 0h2v2h-2zm4 0h2v2h-2zm4 0h2v2h-2zm2 0h2v2h-2zm6 0h2v2h-2zm2 0h2v2h-2zm2 0h2v2h-2zm4 0h2v2h-2zm2 0h2v2h-2zm4 0h2v2h-2zm2 0h2v2h-2zM2 58h2v2H2zm2 0h2v2H4zm2 0h2v2H6zm2 0h2v2H8zm2 0h2v2h-2zm2 0h2v2h-2zm2 0h2v2h-2zm4 0h2v2h-2zm2 0h2v2h-2zm2 0h2v2h-2zm4 0h2v2h-2zm10 0h2v2h-2zm6 0h2v2h-2zm4 0h2v2h-2zm2 0h2v2h-2zm2 0h2v2h-2zm6 0h2v2h-2z" />
</svg>